<svg width="16" height="16" viewBox="0 0 16 16" fill="none" xmlns="http://www.w3.org/2000/svg">
<g clip-path="url(#clip0_25_16)">
<path d="M15.197 7.11909L15.0847 7.28964L15.2294 7.43376L15.7091 7.91164C15.7276 7.93008 15.7458 7.96495 15.7494 8.01891C15.7523 8.06162 15.7448 8.10339 15.7322 8.13614L15.3182 8.54854L15.1724 8.69374L15.2869 8.86472L15.6383 9.38972C15.6793 9.46187 15.6603 9.53913 15.6027 9.58089L15.038 9.95003L14.8621 10.065L14.9452 10.2581L15.2082 10.8695C15.2197 10.9048 15.2176 10.9439 15.2039 10.9769C15.19 11.0104 15.1676 11.0303 15.143 11.0393L15.1428 11.039L15.1308 11.0441L14.5444 11.2918L14.3564 11.3713L14.3966 11.5713L14.5204 12.1879C14.5308 12.2508 14.4741 12.3282 14.4195 12.3381L14.4195 12.3379L14.4114 12.3397L13.7539 12.4813L13.5566 12.5238V12.7257V13.3982C13.5566 13.4617 13.5018 13.5199 13.4334 13.5199H12.7937H12.5889L12.5486 13.7207L12.4242 14.3402L12.4241 14.3401L12.4228 14.3481C12.4166 14.3853 12.3985 14.4093 12.3756 14.4245C12.3516 14.4404 12.3149 14.4512 12.2682 14.444L11.614 14.3207L11.4172 14.2836L11.338 14.4676L11.0728 15.084C11.0379 15.1582 10.9633 15.1876 10.8935 15.1648L10.3145 14.9202L10.1243 14.8398L10.0095 15.0114L9.65605 15.5394C9.61408 15.5973 9.5346 15.6173 9.46049 15.575L8.89694 15.2067L8.72731 15.0958L8.58373 15.2388L8.10396 15.7167C8.05936 15.7611 7.96835 15.7611 7.92375 15.7167L7.47952 15.2742L7.33487 15.1301L7.1648 15.2431L6.63767 15.5931C6.56398 15.6347 6.4851 15.615 6.44314 15.5577L6.07256 14.9952L5.95768 14.8208L5.76565 14.9028L5.15172 15.1649C5.11565 15.1765 5.07561 15.1744 5.0419 15.1605C5.00776 15.1464 4.98791 15.124 4.97918 15.1001L4.97951 15.1L4.97435 15.0879L4.72558 14.5038L4.64598 14.3169L4.44673 14.3566L3.82764 14.4799C3.76208 14.4907 3.68496 14.4324 3.67537 14.3799L3.6755 14.3799L3.67374 14.3717L3.53159 13.7169L3.48883 13.5199H3.28728H2.61206C2.54593 13.5199 2.4889 13.464 2.4889 13.3982V12.7611V12.556L2.28775 12.5159L1.66583 12.392L1.66586 12.3919L1.65793 12.3905C1.6197 12.3842 1.59553 12.3658 1.58042 12.3432C1.56468 12.3197 1.554 12.2838 1.56113 12.2381L1.6849 11.5865L1.72244 11.3889L1.53745 11.3099L0.918529 11.0457C0.8432 11.0105 0.815122 10.9369 0.837342 10.8692L1.08292 10.2927L1.16438 10.1014L0.991212 9.98643L0.461064 9.63439C0.40295 9.59259 0.383689 9.51474 0.425345 9.44219L0.795143 8.88091L0.907503 8.71036L0.762807 8.56624L0.283042 8.08836C0.238986 8.04448 0.238986 7.95552 0.283042 7.91164L0.727269 7.46916L0.87304 7.32396L0.758601 7.15298L0.407218 6.62798C0.365616 6.55487 0.385744 6.47652 0.44506 6.43516L0.445165 6.43531L0.452793 6.42955L0.968096 6.04017L1.12451 5.92198L1.04702 5.7419L0.783949 5.13048C0.77251 5.09521 0.774562 5.05609 0.788306 5.02307C0.802218 4.98965 0.824547 4.96965 0.849209 4.96072L0.849326 4.96104L0.861382 4.95595L1.44776 4.70816L1.63573 4.62873L1.59556 4.42866L1.47175 3.81205C1.46136 3.74915 1.51804 3.67183 1.57269 3.66193L1.57272 3.66206L1.58078 3.66033L2.23823 3.51873L2.4356 3.47623V3.27434V2.60177C2.4356 2.5383 2.49034 2.48009 2.55875 2.48009H3.19843H3.40323L3.44354 2.2793L3.56793 1.65983L3.56805 1.65986L3.56939 1.65188C3.57562 1.61466 3.59367 1.59074 3.61659 1.57552C3.64055 1.55961 3.67728 1.54877 3.72395 1.55601L4.37821 1.6793L4.575 1.71639L4.65415 1.53244L4.91938 0.915997C4.9543 0.841772 5.02887 0.812368 5.09868 0.835188L5.67764 1.07984L5.86785 1.16022L5.98271 0.988611L6.33612 0.460581C6.37809 0.402686 6.45758 0.382724 6.53169 0.424965L7.09523 0.79333L7.26486 0.904213L7.40844 0.761196L7.88821 0.28332C7.93281 0.238893 8.02382 0.238893 8.06843 0.28332L8.51265 0.725798L8.6573 0.869875L8.82738 0.756937L9.35449 0.406911C9.42819 0.365273 9.50707 0.385021 9.54903 0.442321L9.91961 1.0048L10.0345 1.17916L10.2265 1.09718L10.8405 0.835105C10.8765 0.823472 10.9166 0.825554 10.9503 0.839476C10.9844 0.853577 11.0043 0.875987 11.013 0.899893L11.0127 0.900012L11.0178 0.912123L11.2666 1.49619L11.3462 1.6831L11.5454 1.64341L12.1645 1.52008C12.2301 1.50928 12.3072 1.56757 12.3168 1.62011L12.3167 1.62014L12.3184 1.62825L12.4606 2.28312L12.5033 2.48009H12.7049H13.3801C13.4462 2.48009 13.5033 2.53603 13.5033 2.60177V3.23894V3.44405L13.7044 3.48412L14.3263 3.60801L14.3263 3.60814L14.3342 3.60946C14.3725 3.6158 14.3966 3.63418 14.4118 3.65675C14.4275 3.68028 14.4382 3.71619 14.431 3.76189L14.3073 4.41353L14.2697 4.61113L14.4547 4.6901L15.0736 4.95431C15.149 4.98945 15.1771 5.06311 15.1548 5.13076L14.9093 5.70735L14.8278 5.89859L15.001 6.01357L15.5311 6.3656C15.5892 6.40739 15.6085 6.48524 15.5668 6.5578L15.197 7.11909Z" fill="white" stroke="#19747E" stroke-width="0.5"/>
<path d="M14.0859 8.03227C14.0859 11.414 11.3334 14.1571 7.93595 14.1571C4.53847 14.1571 1.78595 11.414 1.78595 8.03227C1.78595 4.65057 4.53847 1.90747 7.93595 1.90747C11.3334 1.90747 14.0859 4.65057 14.0859 8.03227Z" fill="white" stroke="#19747E" stroke-width="0.5"/>
<path d="M7.86722 4.73296C8.08356 4.73296 8.25902 4.55819 8.25902 4.3429C8.25902 4.1274 8.08356 3.95264 7.86722 3.95264C7.65082 3.95264 7.47546 4.1274 7.47546 4.3429C7.47546 4.55819 7.65082 4.73296 7.86722 4.73296Z" fill="#19747E"/>
<mask id="mask0_25_16" style="mask-type:luminance" maskUnits="userSpaceOnUse" x="3" y="4" width="10" height="9">
<path d="M3.401 4.69556H12.4744V12.2729H3.401V4.69556Z" fill="white"/>
</mask>
<g mask="url(#mask0_25_16)">
<path d="M11.3927 9.25026V5.56675L12.3143 9.25026H11.3927ZM10.3537 9.25026L11.2752 5.56675V9.25026H10.3537ZM4.5963 9.25026V5.56675L5.51783 9.25026H4.5963ZM3.55729 9.25026L4.47872 5.56675V9.25026H3.55729ZM12.4353 9.25026L11.4824 5.44083C11.6142 5.37811 11.7061 5.24506 11.7061 5.08972C11.7061 4.87413 11.5306 4.69946 11.3144 4.69946C11.1587 4.69946 11.0251 4.79071 10.9621 4.92189C10.2008 4.97064 9.71023 5.2459 9.26791 5.49444C8.92337 5.68815 8.61443 5.85932 8.21235 5.92376V5.2305H8.56238V4.8793H7.15221V5.2305H7.52198V5.92519C7.11507 5.86193 6.80376 5.68982 6.45665 5.49444C6.0407 5.26065 5.58213 5.00345 4.89586 4.93311C4.83532 4.79572 4.69788 4.69946 4.53759 4.69946C4.37927 4.69946 4.24376 4.79346 4.18198 4.92799C4.17803 4.92839 4.17448 4.92839 4.17058 4.92868L4.1725 4.95106C4.15586 4.99435 4.14579 5.04073 4.14579 5.08972C4.14579 5.25195 4.24524 5.39095 4.38692 5.44973L3.43625 9.25026H3.40149C3.40149 9.25026 3.48653 9.97997 4.53759 9.97997C5.58865 9.97997 5.67364 9.25026 5.67364 9.25026H5.63887L4.68825 5.44973C4.76791 5.41663 4.83285 5.35736 4.87556 5.28367C5.481 5.34899 5.88702 5.57747 6.28327 5.8003C6.64618 6.00448 7.02139 6.21176 7.52198 6.279V11.566H6.89754V11.9171H6.25132V12.2684H9.67408V11.9171H9.013V11.566H8.21235V6.27757C8.70806 6.209 9.0808 6.00295 9.44124 5.8003C9.86332 5.56296 10.2972 5.31943 10.9708 5.27344C11.0162 5.35736 11.0906 5.42258 11.1817 5.45549L10.2326 9.25026H10.1979C10.1979 9.25026 10.2827 9.97997 11.334 9.97997C12.385 9.97997 12.4699 9.25026 12.4699 9.25026H12.4353Z" fill="#19747E"/>
</g>
</g>
<defs>
<clipPath id="clip0_25_16">
<rect width="16" height="16" fill="white"/>
</clipPath>
</defs>
</svg>
